<?xml version="1.0" encoding="UTF-8" standalone="no"?>
<svg
   height="72"
   viewBox="0 0 72 72"
   width="72"
   version="1.1"
   id="svg59"
   sodipodi:docname="icon.svg"
   xml:space="preserve"
   inkscape:export-filename="../ドキュメント/GitHub/hide-promoted-jobs/icons/icon128.png"
   inkscape:export-xdpi="170.66667"
   inkscape:export-ydpi="170.66667"
   inkscape:version="1.2.1 (9c6d41e410, 2022-07-14)"
   xmlns:inkscape="http://www.inkscape.org/namespaces/inkscape"
   xmlns:sodipodi="http://sodipodi.sourceforge.net/DTD/sodipodi-0.dtd"
   xmlns="http://www.w3.org/2000/svg"
   xmlns:svg="http://www.w3.org/2000/svg"><defs
     id="defs63" /><sodipodi:namedview
     id="namedview61"
     pagecolor="#ffffff"
     bordercolor="#000000"
     borderopacity="0.25"
     inkscape:showpageshadow="2"
     inkscape:pageopacity="0.0"
     inkscape:pagecheckerboard="0"
     inkscape:deskcolor="#d1d1d1"
     showgrid="false"
     inkscape:zoom="5.5328856"
     inkscape:cx="17.621908"
     inkscape:cy="48.166548"
     inkscape:window-width="1920"
     inkscape:window-height="981"
     inkscape:window-x="0"
     inkscape:window-y="0"
     inkscape:window-maximized="1"
     inkscape:current-layer="svg59" /><path
     d="m 8,72 h 56 c 4.418278,0 8,-3.581722 8,-8 V 8 C 72,3.581722 68.418278,0 64,0 H 8 C 3.581722,0 0,3.581722 0,8 v 56 c 0,4.418278 3.581722,8 8,8 z"
     fill="#007ebb"
     id="path53"
     style="display:inline"
     inkscape:label="background" /><path
     style="fill:#ffffff;stroke-width:0.140626"
     d="m 27,60.455154 v -1.125 h 9 9 v 1.125 1.125 H 36 27 Z M 20.156566,50.100407 c -0.782693,-0.277385 -1.80552,-1.380106 -2.021534,-2.179438 -0.216639,-0.801645 -0.08897,-1.977636 0.283189,-2.608388 0.162983,-0.276236 0.27794,-0.517523 0.255463,-0.536192 C 18.651204,44.757719 18,44.474518 17.226563,44.147051 c -1.569871,-0.66467 -2.820241,-1.327604 -4.078125,-2.16218 -1.27522,-0.84608 -2.601562,-1.923603 -2.601562,-2.113518 0,-0.09293 0.317677,-0.48186 0.70595,-0.864296 0.518108,-0.510315 0.755351,-0.658584 0.8916,-0.557214 0.102108,0.07597 0.749468,0.566862 1.438581,1.090876 0.73386,0.558041 2.068555,1.359203 3.221681,1.933842 3.825198,1.906216 7.920826,2.911295 12.961381,3.180761 L 31.5,44.748022 v 1.125369 1.125369 L 29.628795,46.90902 C 27.916181,46.82688 26.114202,46.641634 25.13672,46.447222 24.767784,46.373842 24.75,46.395542 24.75,46.918931 c 0,1.835905 -1.612008,3.43488 -3.427837,3.400121 -0.318986,-0.0061 -0.843505,-0.104496 -1.165597,-0.218645 z m 29.25,0 c -0.741155,-0.262662 -1.800706,-1.377073 -2.003418,-2.107147 -0.08336,-0.300255 -0.151933,-0.78825 -0.152363,-1.084437 -7.04e-4,-0.512236 -0.01966,-0.534763 -0.387504,-0.461601 -0.977483,0.194412 -2.779461,0.379658 -4.492075,0.461793 L 40.5,46.998755 v -1.125369 -1.125369 l 1.733932,-0.0927 c 5.040554,-0.269466 9.136183,-1.274545 12.96138,-3.180761 1.153126,-0.574639 2.487821,-1.375801 3.221681,-1.933842 0.689113,-0.524013 1.336472,-1.014907 1.438579,-1.090875 0.136251,-0.101376 0.373493,0.0469 0.891601,0.557214 0.388272,0.382435 0.705951,0.773577 0.705951,0.869205 0,0.25901 -1.956135,1.735469 -3.584089,2.705217 -0.7869,0.468744 -2.121729,1.147063 -2.966288,1.507379 -0.844558,0.360316 -1.553953,0.670048 -1.576431,0.688297 -0.02248,0.01825 0.09248,0.259189 0.255463,0.535425 0.162985,0.276239 0.33172,0.845091 0.374966,1.264118 0.258225,2.501955 -2.15657,4.371998 -4.55018,3.523708 z"
     id="path277"
     inkscape:label="face" /></svg>
